<mxfile host="app.diagrams.net" modified="2024-05-31T14:19:55.983Z" agent="Mozilla/5.0 (Windows NT 10.0; Win64; x64) AppleWebKit/537.36 (KHTML, like Gecko) Chrome/124.0.0.0 Safari/537.36" etag="fPy-oyvR28KD0zGJbvGX" version="24.4.8" type="device">
  <diagram name="Page-1" id="TIORECmDqBTl81TR63bm">
    <mxGraphModel dx="1290" dy="522" grid="1" gridSize="10" guides="1" tooltips="1" connect="1" arrows="1" fold="1" page="1" pageScale="1" pageWidth="850" pageHeight="1100" math="0" shadow="0">
      <root>
        <mxCell id="0" />
        <mxCell id="1" parent="0" />
        <mxCell id="_K6GFNrfA5l-wM52xF2G-1" value="&lt;font style=&quot;font-size: 12px;&quot;&gt;bubbleSort(array)&lt;/font&gt;" style="text;html=1;align=center;verticalAlign=middle;resizable=0;points=[];autosize=1;strokeColor=none;fillColor=none;" vertex="1" parent="1">
          <mxGeometry x="340" y="48" width="120" height="30" as="geometry" />
        </mxCell>
        <mxCell id="_K6GFNrfA5l-wM52xF2G-2" value="sort(array, 0)" style="text;html=1;align=center;verticalAlign=middle;whiteSpace=wrap;rounded=0;" vertex="1" parent="1">
          <mxGeometry x="350" y="110" width="70" height="30" as="geometry" />
        </mxCell>
        <mxCell id="_K6GFNrfA5l-wM52xF2G-3" value="bubble(array, 0, 3)" style="text;html=1;align=center;verticalAlign=middle;resizable=0;points=[];autosize=1;strokeColor=none;fillColor=none;" vertex="1" parent="1">
          <mxGeometry x="335" y="168" width="120" height="30" as="geometry" />
        </mxCell>
        <mxCell id="_K6GFNrfA5l-wM52xF2G-4" value="bubble(array, 0, 2)" style="text;html=1;align=center;verticalAlign=middle;resizable=0;points=[];autosize=1;strokeColor=none;fillColor=none;" vertex="1" parent="1">
          <mxGeometry x="430" y="218" width="120" height="30" as="geometry" />
        </mxCell>
        <mxCell id="_K6GFNrfA5l-wM52xF2G-5" value="bubble(array, 0, 1)" style="text;html=1;align=center;verticalAlign=middle;resizable=0;points=[];autosize=1;strokeColor=none;fillColor=none;" vertex="1" parent="1">
          <mxGeometry x="450" y="278" width="120" height="30" as="geometry" />
        </mxCell>
        <mxCell id="_K6GFNrfA5l-wM52xF2G-6" value="bubble(array, 0, 0)" style="text;html=1;align=center;verticalAlign=middle;resizable=0;points=[];autosize=1;strokeColor=none;fillColor=none;" vertex="1" parent="1">
          <mxGeometry x="480" y="338" width="120" height="30" as="geometry" />
        </mxCell>
        <mxCell id="_K6GFNrfA5l-wM52xF2G-7" value="sort(array, 1)" style="text;html=1;align=center;verticalAlign=middle;resizable=0;points=[];autosize=1;strokeColor=none;fillColor=none;" vertex="1" parent="1">
          <mxGeometry x="230" y="218" width="90" height="30" as="geometry" />
        </mxCell>
        <mxCell id="_K6GFNrfA5l-wM52xF2G-8" value="bubble(array, 1, 3)" style="text;html=1;align=center;verticalAlign=middle;resizable=0;points=[];autosize=1;strokeColor=none;fillColor=none;" vertex="1" parent="1">
          <mxGeometry x="260" y="270" width="120" height="30" as="geometry" />
        </mxCell>
        <mxCell id="_K6GFNrfA5l-wM52xF2G-9" value="bubble(array, 1, 2)" style="text;html=1;align=center;verticalAlign=middle;resizable=0;points=[];autosize=1;strokeColor=none;fillColor=none;" vertex="1" parent="1">
          <mxGeometry x="290" y="320" width="120" height="30" as="geometry" />
        </mxCell>
        <mxCell id="_K6GFNrfA5l-wM52xF2G-10" value="bubble(array, 1, 1)" style="text;html=1;align=center;verticalAlign=middle;resizable=0;points=[];autosize=1;strokeColor=none;fillColor=none;" vertex="1" parent="1">
          <mxGeometry x="325" y="368" width="120" height="30" as="geometry" />
        </mxCell>
        <mxCell id="_K6GFNrfA5l-wM52xF2G-11" value="sort(array, 2)" style="text;html=1;align=center;verticalAlign=middle;resizable=0;points=[];autosize=1;strokeColor=none;fillColor=none;" vertex="1" parent="1">
          <mxGeometry x="155" y="378" width="90" height="30" as="geometry" />
        </mxCell>
        <mxCell id="_K6GFNrfA5l-wM52xF2G-12" value="bubble(array, 2, 3)" style="text;html=1;align=center;verticalAlign=middle;resizable=0;points=[];autosize=1;strokeColor=none;fillColor=none;" vertex="1" parent="1">
          <mxGeometry x="195" y="430" width="120" height="30" as="geometry" />
        </mxCell>
        <mxCell id="_K6GFNrfA5l-wM52xF2G-13" value="bubble(array, 2, 2)" style="text;html=1;align=center;verticalAlign=middle;resizable=0;points=[];autosize=1;strokeColor=none;fillColor=none;" vertex="1" parent="1">
          <mxGeometry x="260" y="490" width="120" height="30" as="geometry" />
        </mxCell>
        <mxCell id="_K6GFNrfA5l-wM52xF2G-14" value="sort(array, 3)" style="text;html=1;align=center;verticalAlign=middle;resizable=0;points=[];autosize=1;strokeColor=none;fillColor=none;" vertex="1" parent="1">
          <mxGeometry x="105" y="498" width="90" height="30" as="geometry" />
        </mxCell>
        <mxCell id="_K6GFNrfA5l-wM52xF2G-15" value="base case" style="text;html=1;align=center;verticalAlign=middle;resizable=0;points=[];autosize=1;strokeColor=none;fillColor=none;" vertex="1" parent="1">
          <mxGeometry x="110" y="550" width="80" height="30" as="geometry" />
        </mxCell>
        <mxCell id="_K6GFNrfA5l-wM52xF2G-16" value="" style="endArrow=none;html=1;rounded=0;entryX=0.46;entryY=1.08;entryDx=0;entryDy=0;entryPerimeter=0;exitX=0.64;exitY=0.213;exitDx=0;exitDy=0;exitPerimeter=0;" edge="1" parent="1" source="_K6GFNrfA5l-wM52xF2G-2" target="_K6GFNrfA5l-wM52xF2G-1">
          <mxGeometry width="50" height="50" relative="1" as="geometry">
            <mxPoint x="680" y="180" as="sourcePoint" />
            <mxPoint x="680" y="148" as="targetPoint" />
          </mxGeometry>
        </mxCell>
        <mxCell id="_K6GFNrfA5l-wM52xF2G-17" value="" style="endArrow=none;html=1;rounded=0;entryX=0.5;entryY=1;entryDx=0;entryDy=0;exitX=0.425;exitY=0.2;exitDx=0;exitDy=0;exitPerimeter=0;" edge="1" parent="1" source="_K6GFNrfA5l-wM52xF2G-3" target="_K6GFNrfA5l-wM52xF2G-2">
          <mxGeometry width="50" height="50" relative="1" as="geometry">
            <mxPoint x="690" y="190" as="sourcePoint" />
            <mxPoint x="690" y="158" as="targetPoint" />
          </mxGeometry>
        </mxCell>
        <mxCell id="_K6GFNrfA5l-wM52xF2G-18" value="" style="endArrow=none;html=1;rounded=0;entryX=0.738;entryY=1.107;entryDx=0;entryDy=0;entryPerimeter=0;exitX=0.08;exitY=0.08;exitDx=0;exitDy=0;exitPerimeter=0;" edge="1" parent="1" source="_K6GFNrfA5l-wM52xF2G-4" target="_K6GFNrfA5l-wM52xF2G-3">
          <mxGeometry width="50" height="50" relative="1" as="geometry">
            <mxPoint x="700" y="200" as="sourcePoint" />
            <mxPoint x="700" y="168" as="targetPoint" />
          </mxGeometry>
        </mxCell>
        <mxCell id="_K6GFNrfA5l-wM52xF2G-19" value="" style="endArrow=none;html=1;rounded=0;entryX=0.373;entryY=1.173;entryDx=0;entryDy=0;entryPerimeter=0;exitX=0.327;exitY=0;exitDx=0;exitDy=0;exitPerimeter=0;" edge="1" parent="1" source="_K6GFNrfA5l-wM52xF2G-5" target="_K6GFNrfA5l-wM52xF2G-4">
          <mxGeometry width="50" height="50" relative="1" as="geometry">
            <mxPoint x="710" y="210" as="sourcePoint" />
            <mxPoint x="710" y="178" as="targetPoint" />
          </mxGeometry>
        </mxCell>
        <mxCell id="_K6GFNrfA5l-wM52xF2G-20" value="" style="endArrow=none;html=1;rounded=0;entryX=0.487;entryY=1.093;entryDx=0;entryDy=0;entryPerimeter=0;exitX=0.397;exitY=-0.08;exitDx=0;exitDy=0;exitPerimeter=0;" edge="1" parent="1" source="_K6GFNrfA5l-wM52xF2G-6" target="_K6GFNrfA5l-wM52xF2G-5">
          <mxGeometry width="50" height="50" relative="1" as="geometry">
            <mxPoint x="720" y="220" as="sourcePoint" />
            <mxPoint x="720" y="188" as="targetPoint" />
          </mxGeometry>
        </mxCell>
        <mxCell id="_K6GFNrfA5l-wM52xF2G-21" value="" style="endArrow=none;html=1;rounded=0;entryX=0.258;entryY=1.107;entryDx=0;entryDy=0;entryPerimeter=0;exitX=0.942;exitY=-0.027;exitDx=0;exitDy=0;exitPerimeter=0;" edge="1" parent="1" source="_K6GFNrfA5l-wM52xF2G-7" target="_K6GFNrfA5l-wM52xF2G-3">
          <mxGeometry width="50" height="50" relative="1" as="geometry">
            <mxPoint x="730" y="230" as="sourcePoint" />
            <mxPoint x="730" y="198" as="targetPoint" />
          </mxGeometry>
        </mxCell>
        <mxCell id="_K6GFNrfA5l-wM52xF2G-22" value="" style="endArrow=none;html=1;rounded=0;entryX=0.604;entryY=1.093;entryDx=0;entryDy=0;entryPerimeter=0;exitX=0.343;exitY=0.107;exitDx=0;exitDy=0;exitPerimeter=0;" edge="1" parent="1" source="_K6GFNrfA5l-wM52xF2G-8" target="_K6GFNrfA5l-wM52xF2G-7">
          <mxGeometry width="50" height="50" relative="1" as="geometry">
            <mxPoint x="740" y="240" as="sourcePoint" />
            <mxPoint x="740" y="208" as="targetPoint" />
          </mxGeometry>
        </mxCell>
        <mxCell id="_K6GFNrfA5l-wM52xF2G-23" value="" style="endArrow=none;html=1;rounded=0;entryX=0.39;entryY=1.067;entryDx=0;entryDy=0;entryPerimeter=0;exitX=0.297;exitY=0.147;exitDx=0;exitDy=0;exitPerimeter=0;" edge="1" parent="1" source="_K6GFNrfA5l-wM52xF2G-9" target="_K6GFNrfA5l-wM52xF2G-8">
          <mxGeometry width="50" height="50" relative="1" as="geometry">
            <mxPoint x="750" y="250" as="sourcePoint" />
            <mxPoint x="750" y="218" as="targetPoint" />
          </mxGeometry>
        </mxCell>
        <mxCell id="_K6GFNrfA5l-wM52xF2G-24" value="" style="endArrow=none;html=1;rounded=0;entryX=0.443;entryY=1;entryDx=0;entryDy=0;entryPerimeter=0;exitX=0.3;exitY=-0.013;exitDx=0;exitDy=0;exitPerimeter=0;" edge="1" parent="1" source="_K6GFNrfA5l-wM52xF2G-10" target="_K6GFNrfA5l-wM52xF2G-9">
          <mxGeometry width="50" height="50" relative="1" as="geometry">
            <mxPoint x="760" y="260" as="sourcePoint" />
            <mxPoint x="760" y="228" as="targetPoint" />
          </mxGeometry>
        </mxCell>
        <mxCell id="_K6GFNrfA5l-wM52xF2G-25" value="" style="endArrow=none;html=1;rounded=0;entryX=0.249;entryY=1.12;entryDx=0;entryDy=0;entryPerimeter=0;exitX=0.851;exitY=-0.187;exitDx=0;exitDy=0;exitPerimeter=0;" edge="1" parent="1" source="_K6GFNrfA5l-wM52xF2G-11" target="_K6GFNrfA5l-wM52xF2G-7">
          <mxGeometry width="50" height="50" relative="1" as="geometry">
            <mxPoint x="770" y="270" as="sourcePoint" />
            <mxPoint x="770" y="238" as="targetPoint" />
          </mxGeometry>
        </mxCell>
        <mxCell id="_K6GFNrfA5l-wM52xF2G-26" value="" style="endArrow=none;html=1;rounded=0;entryX=0.673;entryY=1.093;entryDx=0;entryDy=0;entryPerimeter=0;exitX=0.43;exitY=0.08;exitDx=0;exitDy=0;exitPerimeter=0;" edge="1" parent="1" source="_K6GFNrfA5l-wM52xF2G-12" target="_K6GFNrfA5l-wM52xF2G-11">
          <mxGeometry width="50" height="50" relative="1" as="geometry">
            <mxPoint x="780" y="280" as="sourcePoint" />
            <mxPoint x="780" y="248" as="targetPoint" />
          </mxGeometry>
        </mxCell>
        <mxCell id="_K6GFNrfA5l-wM52xF2G-27" value="" style="endArrow=none;html=1;rounded=0;entryX=0.572;entryY=1.093;entryDx=0;entryDy=0;entryPerimeter=0;exitX=0.377;exitY=-0.027;exitDx=0;exitDy=0;exitPerimeter=0;" edge="1" parent="1" source="_K6GFNrfA5l-wM52xF2G-13" target="_K6GFNrfA5l-wM52xF2G-12">
          <mxGeometry width="50" height="50" relative="1" as="geometry">
            <mxPoint x="790" y="290" as="sourcePoint" />
            <mxPoint x="790" y="258" as="targetPoint" />
          </mxGeometry>
        </mxCell>
        <mxCell id="_K6GFNrfA5l-wM52xF2G-28" value="" style="endArrow=none;html=1;rounded=0;entryX=0.256;entryY=1.173;entryDx=0;entryDy=0;entryPerimeter=0;exitX=0.651;exitY=-0.213;exitDx=0;exitDy=0;exitPerimeter=0;" edge="1" parent="1" source="_K6GFNrfA5l-wM52xF2G-14" target="_K6GFNrfA5l-wM52xF2G-11">
          <mxGeometry width="50" height="50" relative="1" as="geometry">
            <mxPoint x="800" y="300" as="sourcePoint" />
            <mxPoint x="800" y="268" as="targetPoint" />
          </mxGeometry>
        </mxCell>
        <mxCell id="_K6GFNrfA5l-wM52xF2G-29" value="" style="endArrow=none;html=1;rounded=0;entryX=0.491;entryY=0.853;entryDx=0;entryDy=0;entryPerimeter=0;exitX=0.54;exitY=0.053;exitDx=0;exitDy=0;exitPerimeter=0;" edge="1" parent="1" source="_K6GFNrfA5l-wM52xF2G-15" target="_K6GFNrfA5l-wM52xF2G-14">
          <mxGeometry width="50" height="50" relative="1" as="geometry">
            <mxPoint x="810" y="310" as="sourcePoint" />
            <mxPoint x="810" y="278" as="targetPoint" />
          </mxGeometry>
        </mxCell>
      </root>
    </mxGraphModel>
  </diagram>
</mxfile>
